<mxfile host="app.diagrams.net" modified="2024-06-17T08:39:36.487Z" agent="Mozilla/5.0 (Windows NT 10.0; Win64; x64) AppleWebKit/537.36 (KHTML, like Gecko) Chrome/126.0.0.0 Safari/537.36" etag="Ud5w6S5cro2Gy2czBkTu" version="24.5.4" type="device">
  <diagram name="Page-1" id="43zimsoKOgYCE07fsmOR">
    <mxGraphModel dx="2163" dy="1845" grid="1" gridSize="10" guides="1" tooltips="1" connect="1" arrows="1" fold="1" page="1" pageScale="1" pageWidth="850" pageHeight="1100" math="0" shadow="0">
      <root>
        <mxCell id="0" />
        <mxCell id="1" parent="0" />
        <mxCell id="2" value="LabXplorer" style="whiteSpace=wrap;strokeWidth=2;verticalAlign=top;" parent="1" vertex="1">
          <mxGeometry y="12" width="483" height="229" as="geometry" />
        </mxCell>
        <mxCell id="3" value="Workflows" style="rounded=1;absoluteArcSize=1;arcSize=14;whiteSpace=wrap;strokeWidth=2;" parent="1" vertex="1">
          <mxGeometry x="152" y="163" width="89" height="33" as="geometry" />
        </mxCell>
        <mxCell id="4" value="Experiments Data" style="rounded=1;absoluteArcSize=1;arcSize=14;whiteSpace=wrap;strokeWidth=2;" parent="1" vertex="1">
          <mxGeometry x="317" y="137" width="141" height="33" as="geometry" />
        </mxCell>
        <mxCell id="5" value="Platform" style="rounded=1;absoluteArcSize=1;arcSize=14;whiteSpace=wrap;strokeWidth=2;" parent="1" vertex="1">
          <mxGeometry x="25" y="143" width="77" height="33" as="geometry" />
        </mxCell>
        <mxCell id="6" value="Teachers" style="whiteSpace=wrap;strokeWidth=2;verticalAlign=top;" parent="1" vertex="1">
          <mxGeometry x="292" y="261" width="438" height="113" as="geometry" />
        </mxCell>
        <mxCell id="7" value="Create Workflows" style="rounded=1;absoluteArcSize=1;arcSize=14;whiteSpace=wrap;strokeWidth=2;" parent="1" vertex="1">
          <mxGeometry x="558" y="296" width="141" height="33" as="geometry" />
        </mxCell>
        <mxCell id="sjfUzjBFZE3jWQW9BBrk-36" style="edgeStyle=orthogonalEdgeStyle;rounded=0;orthogonalLoop=1;jettySize=auto;html=1;entryX=0.75;entryY=1;entryDx=0;entryDy=0;" edge="1" parent="1" source="8" target="9">
          <mxGeometry relative="1" as="geometry">
            <Array as="points">
              <mxPoint x="388" y="360" />
              <mxPoint x="776" y="360" />
            </Array>
          </mxGeometry>
        </mxCell>
        <mxCell id="8" value="Teacher" style="rounded=1;absoluteArcSize=1;arcSize=14;whiteSpace=wrap;strokeWidth=2;" parent="1" vertex="1">
          <mxGeometry x="351" y="306" width="73" height="33" as="geometry" />
        </mxCell>
        <mxCell id="9" value="Discussion" style="whiteSpace=wrap;strokeWidth=2;" parent="1" vertex="1">
          <mxGeometry x="663" y="196" width="151" height="33" as="geometry" />
        </mxCell>
        <mxCell id="10" value="User" style="whiteSpace=wrap;strokeWidth=2;verticalAlign=top;" parent="1" vertex="1">
          <mxGeometry x="3" y="-210" width="847" height="199" as="geometry" />
        </mxCell>
        <mxCell id="11" value="Visit LabXplorer" style="rounded=1;absoluteArcSize=1;arcSize=14;whiteSpace=wrap;strokeWidth=2;" parent="1" vertex="1">
          <mxGeometry x="33" y="-149" width="130" height="33" as="geometry" />
        </mxCell>
        <mxCell id="sjfUzjBFZE3jWQW9BBrk-32" style="edgeStyle=orthogonalEdgeStyle;rounded=0;orthogonalLoop=1;jettySize=auto;html=1;entryX=1.002;entryY=0.667;entryDx=0;entryDy=0;entryPerimeter=0;" edge="1" parent="1" source="12" target="9">
          <mxGeometry relative="1" as="geometry">
            <Array as="points">
              <mxPoint x="838" y="218" />
            </Array>
          </mxGeometry>
        </mxCell>
        <mxCell id="12" value="User" style="rounded=1;absoluteArcSize=1;arcSize=14;whiteSpace=wrap;strokeWidth=2;" parent="1" vertex="1">
          <mxGeometry x="777" y="-149" width="48" height="33" as="geometry" />
        </mxCell>
        <mxCell id="13" value="Explore Experiments" style="rounded=1;absoluteArcSize=1;arcSize=14;whiteSpace=wrap;strokeWidth=2;" parent="1" vertex="1">
          <mxGeometry x="219" y="-175" width="162" height="33" as="geometry" />
        </mxCell>
        <mxCell id="14" value="Perform Experiments" style="rounded=1;absoluteArcSize=1;arcSize=14;whiteSpace=wrap;strokeWidth=2;" parent="1" vertex="1">
          <mxGeometry x="456" y="-175" width="166" height="33" as="geometry" />
        </mxCell>
        <mxCell id="15" value="Learn" style="rounded=1;absoluteArcSize=1;arcSize=14;whiteSpace=wrap;strokeWidth=2;" parent="1" vertex="1">
          <mxGeometry x="672" y="-175" width="55" height="33" as="geometry" />
        </mxCell>
        <mxCell id="16" value="" style="curved=1;startArrow=none;endArrow=block;exitX=0;exitY=0.88;entryX=0.98;entryY=1.01;" parent="1" source="12" target="11" edge="1">
          <mxGeometry relative="1" as="geometry">
            <Array as="points">
              <mxPoint x="752" y="-107" />
              <mxPoint x="194" y="-107" />
            </Array>
          </mxGeometry>
        </mxCell>
        <mxCell id="17" value="" style="curved=1;startArrow=none;endArrow=block;exitX=0.98;exitY=0;entryX=0;entryY=0.51;" parent="1" source="11" target="13" edge="1">
          <mxGeometry relative="1" as="geometry">
            <Array as="points">
              <mxPoint x="194" y="-158" />
            </Array>
          </mxGeometry>
        </mxCell>
        <mxCell id="18" value="" style="curved=1;startArrow=none;endArrow=block;exitX=1;exitY=0.51;entryX=0;entryY=0.51;" parent="1" source="13" target="14" edge="1">
          <mxGeometry relative="1" as="geometry">
            <Array as="points" />
          </mxGeometry>
        </mxCell>
        <mxCell id="19" value="" style="curved=1;startArrow=none;endArrow=block;exitX=1;exitY=0.51;entryX=0;entryY=0.51;" parent="1" source="14" target="15" edge="1">
          <mxGeometry relative="1" as="geometry">
            <Array as="points" />
          </mxGeometry>
        </mxCell>
        <mxCell id="20" value="" style="curved=1;startArrow=none;endArrow=block;exitX=1;exitY=0.51;entryX=0;entryY=0.12;" parent="1" source="15" target="12" edge="1">
          <mxGeometry relative="1" as="geometry">
            <Array as="points">
              <mxPoint x="752" y="-158" />
            </Array>
          </mxGeometry>
        </mxCell>
        <mxCell id="21" value="" style="curved=1;startArrow=none;endArrow=block;exitX=1;exitY=0.5;entryX=0;entryY=0.73;" parent="1" source="8" target="7" edge="1">
          <mxGeometry relative="1" as="geometry">
            <Array as="points">
              <mxPoint x="533" y="323" />
            </Array>
          </mxGeometry>
        </mxCell>
        <mxCell id="24" value="" style="curved=1;startArrow=none;endArrow=block;exitX=0.28;exitY=1;entryX=1.01;entryY=0.99;" parent="1" source="4" target="3" edge="1">
          <mxGeometry relative="1" as="geometry">
            <Array as="points">
              <mxPoint x="292" y="205" />
              <mxPoint x="267" y="205" />
            </Array>
          </mxGeometry>
        </mxCell>
        <mxCell id="25" value="" style="curved=1;startArrow=none;endArrow=block;exitX=0.79;exitY=-0.01;entryX=0;entryY=0.05;" parent="1" source="3" target="4" edge="1">
          <mxGeometry relative="1" as="geometry">
            <Array as="points">
              <mxPoint x="267" y="133" />
              <mxPoint x="292" y="133" />
            </Array>
          </mxGeometry>
        </mxCell>
        <mxCell id="26" value="" style="curved=1;startArrow=none;endArrow=block;exitX=0.65;exitY=-0.01;entryX=0.37;entryY=-0.01;" parent="1" source="5" target="4" edge="1">
          <mxGeometry relative="1" as="geometry">
            <Array as="points">
              <mxPoint x="127" y="68" />
              <mxPoint x="292" y="68" />
            </Array>
          </mxGeometry>
        </mxCell>
        <mxCell id="27" value="" style="curved=1;startArrow=none;endArrow=block;exitX=1.01;exitY=0.86;entryX=0;entryY=0.49;" parent="1" source="5" target="3" edge="1">
          <mxGeometry relative="1" as="geometry">
            <Array as="points">
              <mxPoint x="127" y="179" />
            </Array>
          </mxGeometry>
        </mxCell>
        <mxCell id="28" value="" style="curved=1;startArrow=none;endArrow=block;exitX=0.65;exitY=-0.01;entryX=0;entryY=0.5;" parent="1" source="4" target="11" edge="1">
          <mxGeometry relative="1" as="geometry">
            <Array as="points">
              <mxPoint x="483" y="78" />
            </Array>
          </mxGeometry>
        </mxCell>
        <mxCell id="29" value="" style="curved=1;startArrow=none;endArrow=block;exitX=1;exitY=0.18;entryX=0.38;entryY=1.01;" parent="1" source="4" target="13" edge="1">
          <mxGeometry relative="1" as="geometry">
            <Array as="points">
              <mxPoint x="483" y="139" />
              <mxPoint x="724" y="139" />
            </Array>
          </mxGeometry>
        </mxCell>
        <mxCell id="30" value="" style="curved=1;startArrow=none;endArrow=block;exitX=1;exitY=0.63;entryX=0.4;entryY=1.01;" parent="1" source="4" target="14" edge="1">
          <mxGeometry relative="1" as="geometry">
            <Array as="points">
              <mxPoint x="483" y="159" />
              <mxPoint x="961" y="159" />
            </Array>
          </mxGeometry>
        </mxCell>
        <mxCell id="31" value="" style="curved=1;startArrow=none;endArrow=block;exitX=0.94;exitY=1;entryX=0.37;entryY=1.01;" parent="1" source="4" target="15" edge="1">
          <mxGeometry relative="1" as="geometry">
            <Array as="points">
              <mxPoint x="483" y="179" />
              <mxPoint x="950" y="190" />
              <mxPoint x="880" y="10" />
            </Array>
          </mxGeometry>
        </mxCell>
        <mxCell id="32" value="" style="curved=1;startArrow=none;endArrow=block;exitX=0.67;exitY=1;entryX=0;entryY=0.15;" parent="1" source="4" target="7" edge="1">
          <mxGeometry relative="1" as="geometry">
            <Array as="points">
              <mxPoint x="483" y="221" />
              <mxPoint x="508" y="297" />
              <mxPoint x="533" y="297" />
            </Array>
          </mxGeometry>
        </mxCell>
        <mxCell id="sjfUzjBFZE3jWQW9BBrk-34" style="edgeStyle=orthogonalEdgeStyle;rounded=0;orthogonalLoop=1;jettySize=auto;html=1;entryX=0.416;entryY=0.955;entryDx=0;entryDy=0;entryPerimeter=0;" edge="1" parent="1" source="7" target="3">
          <mxGeometry relative="1" as="geometry">
            <Array as="points">
              <mxPoint x="189" y="300" />
            </Array>
          </mxGeometry>
        </mxCell>
      </root>
    </mxGraphModel>
  </diagram>
</mxfile>
